<svg width="18" height="18" viewBox="0 0 18 18" fill="none" xmlns="http://www.w3.org/2000/svg">
<path d="M17.8223 16.7805L13.0934 12.0516C14.2877 10.5835 14.8731 8.71322 14.729 6.82626C14.5849 4.93929 13.7222 3.17955 12.3189 1.90985C10.9156 0.640153 9.07865 -0.0427045 7.18672 0.00207055C5.2948 0.0468456 3.49217 0.81584 2.1505 2.1505C0.81584 3.49217 0.0468456 5.2948 0.00207055 7.18672C-0.0427045 9.07865 0.640153 10.9156 1.90985 12.3189C3.17955 13.7222 4.93929 14.5849 6.82626 14.729C8.71322 14.8731 10.5835 14.2877 12.0516 13.0934L16.7805 17.8223C16.9218 17.9434 17.1037 18.0066 17.2896 17.9994C17.4756 17.9923 17.652 17.9152 17.7836 17.7836C17.9152 17.652 17.9923 17.4756 17.9994 17.2896C18.0066 17.1037 17.9434 16.9218 17.8223 16.7805ZM3.19234 11.5566C2.22482 10.5901 1.62233 9.31812 1.48749 7.95727C1.35266 6.59643 1.69383 5.23093 2.45288 4.09343C3.21192 2.95592 4.34189 2.11678 5.65026 1.71897C6.95863 1.32116 8.36445 1.3893 9.62821 1.91178C10.892 2.43425 11.9355 3.37874 12.581 4.58432C13.2265 5.7899 13.434 7.182 13.1682 8.52342C12.9024 9.86485 12.1797 11.0726 11.1232 11.941C10.0668 12.8093 8.74195 13.2845 7.37444 13.2856C6.59766 13.2882 5.82807 13.1367 5.11021 12.84C4.39235 12.5432 3.74048 12.107 3.19234 11.5566ZM8.11333 2.94111C8.11333 3.13708 8.03549 3.32502 7.89692 3.46359C7.75835 3.60215 7.57041 3.68 7.37444 3.68C6.39462 3.68 5.45492 4.06924 4.76208 4.76208C4.06924 5.45492 3.68 6.39462 3.68 7.37444C3.68 7.57041 3.60215 7.75835 3.46359 7.89692C3.32502 8.03549 3.13708 8.11333 2.94111 8.11333C2.74515 8.11333 2.55721 8.03549 2.41864 7.89692C2.28007 7.75835 2.20222 7.57041 2.20222 7.37444C2.20222 6.00269 2.74715 4.68711 3.71713 3.71713C4.68711 2.74715 6.00269 2.20222 7.37444 2.20222C7.57041 2.20222 7.75835 2.28007 7.89692 2.41864C8.03549 2.55721 8.11333 2.74515 8.11333 2.94111Z" fill="#767676"/>
</svg>
